<?xml version="1.0" encoding="UTF-8"?> 
<svg id="Layer_3" xmlns="http://www.w3.org/2000/svg" version="1.1" viewBox="0 0 640 518" style="width: 85%; height: auto; max-width: 85%;">
  <!-- Generator: Adobe Illustrator 30.1.0, SVG Export Plug-In . SVG Version: 2.1.1 Build 109)  -->
  <defs>
    <style>
      .st1, .st2, .st3, .st4, .st5, .st6 {
        stroke-linejoin: round;
        stroke-linecap: round;
        vector-effect: non-scaling-stroke;
      }

      .st1, .st4, .st6 {
        fill: none;
      }

      .st2, .st4 {
        stroke: #39c;
      }

      .st1, .st2, .st3 {
        stroke-width: 3px;
      }

      .st1, .st3, .st5, .st6 {
        stroke: #7ecbff;
      }

      .st3 {
        fill: #fff;
      }

      .st4 {
        stroke-width: 2px;
      }

      .st71 {
        fill: #7ecbff;
      }

      .st5 {
        stroke-width: 3px;
      }

      .st6 {
        stroke-width: 2px;
      }

      .st7 { stroke: #f00; }
      .st8 { stroke: #0f0; }
      .st9 { stroke: #00f; }
      .st10 { stroke: #ff0; }
      .st11 { stroke: #0ff; }
      .st12 { stroke: #f0f; }
      .st13 { stroke: #700; }
      .st14 { stroke: #070; }
      .st15 { stroke: #007; }
      .st16 { stroke: #770; }
      .st17 { stroke: #077; }
      .st18 { stroke: #707; }
    </style>
  </defs>
  <g>

  <g id="Outline">
    <g id="Button_infills_behind">
      <g id="L1_infill">
        <path class="st2" d="M174.14,119.46l-.73-6.75c-.38-3.51-3.17-6.27-6.68-6.59-6.61-.6-17.96-1.09-30.73.73-15.06,2.15-29.14,9.31-35.29,12.8-2.04,1.15-3.42,3.19-3.72,5.51l-.95,7.34,78.1-13.05Z"/>
      </g>
      <g id="R1_infill">
        <path class="st2" d="M465.86,119.46l.73-6.75c.38-3.51,3.17-6.27,6.68-6.59,6.61-.6,17.96-1.09,30.73.73,15.06,2.15,29.14,9.31,35.29,12.8,2.04,1.15,3.42,3.19,3.72,5.51l.95,7.34-78.1-13.05Z"/>
      </g>
    </g>

    <g id="Controller">
      <path class="st3" d="M201.72,242.09s-.03.04-.04.06c-1.62,2.83-3.49,5.55-5.61,8.1-.48.58-.96,1.16-1.45,1.76-1.49,1.66-2.94,3.45-4.34,5.34-10.26,12.78-22.42,28.97-33.58,46.49-25.81,40.53-60.31,106.58-74.92,198.43-.15.01-.31.02-.47.03-42.66,1.95-67.18-66-55.44-170.43,9.51-84.6,42.99-161.84,55.36-188.13,2.8-5.95,8.33-10.15,14.81-11.23l70.6-11.79s.04,0,.11-.01c.05-.01.12-.02.2-.03.04,0,.09-.01.13-.02.36-.04.94-.11,1.72-.2,11.49-.86,22.07,6.79,24.7,18.22l14.29,62.05c3.26,14.18,1.02,28.93-6.07,41.36Z"/>
      <path class="st3" d="M558.22,502.27c-2.96-.17-5.77-.66-8.45-1.46,0,0-25.96-101.81-73.9-125.47h-.01c-4.56-3.22-10.42-4.98-18.51-4.98H182.65c-8.09,0-13.95,1.76-18.51,4.97h-.01c-47.93,23.67-73.9,125.48-73.9,125.48-2.68.8-5.49,1.29-8.45,1.46,14.61-91.85,49.11-157.9,74.92-198.43,11.16-17.52,23.32-33.71,33.58-46.49,1.4-1.89,2.85-3.68,4.34-5.34,7.15-7.97,15.45-13.13,25.7-13.13,5.4,0,10.51,1.43,15.05,3.97,3.43,1.92,7.28,2.94,11.21,2.94h146.85c3.92,0,7.78-1.02,11.2-2.94,4.55-2.54,9.65-3.97,15.05-3.97,10.25,0,18.55,5.16,25.7,13.13,1.4,1.7,2.84,3.48,4.34,5.34,10.26,12.78,22.42,28.97,33.58,46.49,25.81,40.53,60.31,106.58,74.92,198.43Z"/>
      <path class="st3" d="M549.77,500.81c-35.58-10.45-47.1-71.77-55.25-92.62-5.82-14.87-9.76-26.61-18.65-32.85,47.94,23.66,73.9,125.47,73.9,125.47Z"/>
      <path class="st3" d="M164.13,375.34c-8.89,6.24-12.83,17.98-18.65,32.85-8.15,20.85-19.67,82.17-55.25,92.62,0,0,25.97-101.81,73.9-125.47Z"/>
      <path class="st3" d="M558.69,502.3c-.16,0-.32-.02-.47-.03-14.61-91.85-49.11-157.9-74.92-198.43-11.16-17.52-23.32-33.71-33.58-46.49-1.4-1.89-2.85-3.68-4.34-5.34-.49-.6-.97-1.18-1.45-1.76-2.11-2.55-3.98-5.27-5.6-8.1,0,0,0-.02-.04-.06-7.09-12.43-9.34-27.18-6.07-41.36l14.29-62.05c2.63-11.46,13.25-19.11,24.77-18.22.7.08,1.39.17,2.09.26l70.59,11.79c6.49,1.08,12.02,5.28,14.82,11.23,12.37,26.29,45.84,103.53,55.35,188.13,11.74,104.43-12.78,172.38-55.44,170.43Z"/>
      <path class="st3" d="M201.72,242.09c7.09-12.43,9.33-27.18,6.07-41.36l-14.29-62.05-4.66-20.31c2.3-.22,4.77-.44,7.4-.67l18.68,79.72.02.1c4.39,19.1-12.29,43.25-13.22,44.57Z"/>
      <path class="st3" d="M432.22,200.73c-3.27,14.18-1.02,28.93,6.07,41.36-.93-1.32-17.67-25.53-13.21-44.64.01-.01.01-.02.01-.03l18.73-79.98c2.46.23,4.92.48,7.39.74l-4.7,20.5-14.29,62.05Z"/>
      <path class="st3" d="M445.38,252.01c-7.15-7.97-15.45-13.13-25.7-13.13-5.4,0-10.5,1.43-15.05,3.97-3.42,1.92-7.28,2.94-11.2,2.94h-146.85c-3.93,0-7.78-1.02-11.21-2.94-4.54-2.54-9.65-3.97-15.05-3.97-10.25,0-18.55,5.16-25.7,13.13.49-.6.97-1.18,1.45-1.76,2.12-2.55,3.99-5.27,5.61-8.1.01-.02.02-.04.04-.06.93-1.32,17.61-25.47,13.22-44.57l4.79,20.44c3.16,13.47,15.17,23,29,23.01,0,0,70.8.05,71.27.05s71.27-.05,71.27-.05c13.84-.01,25.85-9.54,29.01-23.01l4.8-20.51c-4.46,19.11,12.28,43.32,13.21,44.64.03.04.04.06.04.06,1.62,2.83,3.49,5.55,5.6,8.1.48.58.96,1.16,1.45,1.76Z"/>
      <path class="st3" d="M193.5,138.68c-2.63-11.43-13.21-19.08-24.7-18.22,3.26-.38,10.15-1.16,20.04-2.09l4.66,20.31Z"/>
      <path class="st3" d="M471.28,120.46c-11.52-.89-22.14,6.76-24.77,18.22l4.7-20.5c6.68.68,13.37,1.44,20.07,2.28Z"/>
      <circle class="st3" cx="224.43" cy="301" r="43.64"/>
      <circle class="st3" cx="415.57" cy="301" r="43.64"/>

      <g id="Speaker_grill">
        <g>
          <circle class="st71" cx="298.65" cy="257.32" r="3"/>
          <circle class="st71" cx="309.75" cy="257.32" r="3"/>
          <circle class="st71" cx="320.85" cy="257.32" r="3"/>
          <circle class="st71" cx="331.96" cy="257.32" r="3"/>
          <circle class="st71" cx="343.06" cy="257.32" r="3"/>
        </g>
        <g>
          <circle class="st71" cx="304.2" cy="266.91" r="3"/>
          <circle class="st71" cx="315.3" cy="266.91" r="3"/>
          <circle class="st71" cx="326.4" cy="266.91" r="3"/>
          <circle class="st71" cx="337.51" cy="266.91" r="3"/>
        </g>
      </g>

      <g id="L2_stop_slider">
        <g>
          <rect class="st6" x="17.4" y="146.6" width="22.57" height="60.78" rx="11.28" ry="11.28"/>
          <rect class="st6" x="22.4" y="151.89" width="12.56" height="50.5" rx="6.28" ry="6.28"/>
          
          <line class="st5" x1="45.14" y1="162.5" x2="53.07" y2="162.5"/>
          <line class="st5" x1="45.14" y1="176.99" x2="49.12" y2="176.99"/>
          <line class="st5" x1="45.14" y1="191.5" x2="46.16" y2="191.5"/>
        </g>
      </g>
      <g id="R2_stop_slider">
        <g>
          <rect class="st6" x="600.03" y="146.6" width="22.57" height="60.78" rx="11.28" ry="11.28"/>
          <rect class="st6" x="605.04" y="151.89" width="12.56" height="50.5" rx="6.28" ry="6.28"/>
          
          <line class="st5" x1="594.86" y1="162.5" x2="586.93" y2="162.5"/>
          <line class="st5" x1="594.86" y1="176.99" x2="590.88" y2="176.99"/>
          <line class="st5" x1="594.86" y1="191.5" x2="593.84" y2="191.5"/>
        </g>
      </g>
    </g>

    <!-- <g id="Button_outlines">
      <path id="L2_outline" d="M115.16,122.1h.4l.52-.07.06-.02c24.15-6.19,52.33-10.12,83.69-11.68h.47c5.39,0,9.3-1.44,11.61-4.29,2.31-2.88,2.86-6.94,1.67-11.99l-9.91-67.79c-3.78-16.37-15.49-24.66-34.81-24.66-2.7,0-5.6.17-8.61.49-14.28,1.66-25.37,7.75-32.97,18.08-2.9,3.94-5.2,8.57-6.83,13.75-7.91,25.05-11.67,47.06-16.02,72.55l-.18,1.03c-.57,5.06.28,8.9,2.55,11.39,1.92,2.12,4.73,3.2,8.34,3.2ZM109.72,108.29l.15-.89c4.32-25.3,8.06-47.16,15.84-71.81,1.46-4.61,3.48-8.7,6.02-12.15,6.76-9.19,16.3-14.38,29.16-15.89,2.88-.31,5.61-.46,8.11-.46,16.53,0,26.12,6.66,29.29,20.26l9.88,67.62.04.18c.81,3.44.62,5.94-.57,7.43-1.21,1.5-3.65,2.25-7.25,2.25h-.69c-31.62,1.56-60.09,5.52-84.61,11.76-1.98-.02-3.35-.48-4.19-1.4-1.15-1.27-1.55-3.69-1.18-6.92Z"/>
      <path id="R2_outline" d="M709.98,110.34h.41c31.43,1.56,59.6,5.48,83.74,11.68l.06.02.53.07h.4c3.61,0,6.42-1.08,8.34-3.2,2.27-2.5,3.13-6.33,2.54-11.45l-.17-.97c-4.35-25.49-8.11-47.5-16.02-72.55-1.63-5.18-3.93-9.81-6.83-13.75-7.61-10.33-18.71-16.42-32.99-18.08-3-.33-5.89-.49-8.6-.49-19.32,0-31.03,8.3-34.82,24.74l-9.87,67.63c-1.21,5.13-.66,9.2,1.66,12.08,2.31,2.85,6.22,4.29,11.61,4.29ZM702.09,95.12l.04-.2,9.85-67.49c3.18-13.69,12.77-20.35,29.31-20.35,2.49,0,5.22.16,8.1.46,12.87,1.51,22.41,6.7,29.17,15.89,2.53,3.43,4.55,7.52,6.01,12.15,7.79,24.65,11.52,46.51,15.85,71.82l.14.83c.37,3.3-.03,5.71-1.17,6.97-.85.93-2.22,1.39-4.19,1.4-24.52-6.25-52.99-10.21-84.66-11.77h-.64c-3.56,0-6.07-.77-7.26-2.25-1.2-1.49-1.4-3.99-.56-7.47Z"/>
    </g> -->

    <g id="Button_infills">
      <g id="PS_infill">
        <circle class="st2" cx="320.08" cy="300.97" r="14.77"/>
      </g>
      <g id="Mute_infill">
        <rect class="st2" x="305.51" y="340.6" width="29.15" height="8.02" rx="4.01" ry="4.01"/>
      </g>
      <g id="Down_infill" transform="translate(-2, -40) scale(0.85)">
        <path class="st2" d="M177.4,357.17c-1.88,2.05-4.45,3.18-7.24,3.18h-22.91c-2.79,0-5.36-1.13-7.25-3.18-1.88-2.05-2.79-4.71-2.55-7.49l1.25-14.78c.43-5.04,2.71-9.71,6.42-13.16l9.04-8.39c1.21-1.12,2.74-1.68,4.27-1.68s2.98.54,4.18,1.61l9.44,8.45c3.87,3.47,6.24,8.23,6.68,13.4l1.23,14.55c.24,2.78-.67,5.44-2.56,7.49Z"/>
      </g>
      <g id="Right_infill" transform="translate(-5, -35) scale(0.85)">
        <path class="st2" d="M223.51,284.09v22.91c0,2.79-1.13,5.36-3.18,7.24-2.05,1.89-4.71,2.8-7.49,2.56l-14.55-1.23c-5.17-.44-9.93-2.81-13.39-6.68l-8.46-9.44c-2.17-2.43-2.14-6.06.07-8.45l8.4-9.04c3.44-3.71,8.11-5.99,13.15-6.42l14.78-1.25c2.78-.24,5.44.67,7.49,2.56,2.05,1.88,3.18,4.45,3.18,7.24Z"/>
      </g>
      <g id="Left_infill" transform="translate(1, -35) scale(0.85)">
        <path class="st2" d="M140.97,299.45l-8.46,9.44c-3.46,3.87-8.22,6.24-13.39,6.68l-14.55,1.23c-2.78.24-5.44-.67-7.49-2.56-2.05-1.88-3.18-4.45-3.18-7.24v-22.91c0-2.79,1.13-5.36,3.18-7.24,1.84-1.69,4.17-2.6,6.63-2.6.28,0,.57.01.86.04l14.78,1.25c5.04.43,9.71,2.71,13.15,6.42l8.4,9.04c2.21,2.39,2.24,6.02.07,8.45Z"/>
      </g>
      <g id="Up_infill" transform="translate(-2, -30) scale(0.85)">
        <path class="st2" d="M179.96,241.41l-1.23,14.55c-.44,5.17-2.81,9.93-6.68,13.39l-9.44,8.46c-2.43,2.17-6.06,2.14-8.45-.07l-9.04-8.4c-3.71-3.44-5.99-8.11-6.42-13.15l-1.25-14.78c-.24-2.78.67-5.44,2.55-7.49,1.89-2.05,4.46-3.18,7.25-3.18h22.91c2.79,0,5.36,1.13,7.24,3.18,1.89,2.05,2.8,4.71,2.56,7.49Z"/>
      </g>
      <g id="Triangle_infill">
        <circle class="st2" cx="506.23" cy="174.62" r="20"/>
      </g>
      <g id="Cross_infill">
        <circle class="st2" cx="506.23" cy="263.45" r="20"/>
      </g>
      <g id="Circle_infill">
        <circle class="st2" cx="550.65" cy="219.03" r="20"/>
      </g>
      <g id="Square_infill">
        <circle class="st2" cx="461.82" cy="219.03" r="20"/>
      </g>
      <g id="Options_infill">
        <rect class="st2" x="452.95" y="141.33" width="12.15" height="25.53" rx="6.07" ry="6.07" transform="translate(873.28 404.76) rotate(-167.38)"/>
      </g>
      <g id="Create_infill">
        <rect class="st2" x="174.91" y="141.33" width="12.15" height="25.53" rx="6.07" ry="6.07" transform="translate(-29.3 43.27) rotate(-12.62)"/>
      </g>
      <g id="L2_infill" transform="translate(4, 0)">
        <path class="st2" d="M94.5,87.14l9.47-43.06c3.41-15.52,17.5-26.33,33.37-25.62h0c10.87.48,19.87,8.59,21.49,19.35l6.26,41.52c.59,3.88-2.34,7.4-6.26,7.53-11.72.36-35.47,1.78-57.07,7.31-4.28,1.1-8.21-2.71-7.26-7.02Z"/>
      </g>
      <g id="R2_infill">
        <path class="st2" d="M541.5,87.14l-9.47-43.06c-3.41-15.52-17.5-26.33-33.37-25.62h0c-10.87.48-19.87,8.59-21.49,19.35l-6.26,41.52c-.59,3.88,2.34,7.4,6.26,7.53,11.72.36,35.47,1.78,57.07,7.31,4.28,1.1,8.21-2.71,7.26-7.02Z"/>
      </g>
      <g id="Fn_left_infill">
        <path class="st2" d="M245.21,365.32c1.59-.07,2.67,1.59,1.95,3.01-1.38,2.71-3.45,7.46-6.05,15.45-.94,2.9-3.52,5.01-6.6,5.38-2.63.32-6.11.61-10.07.61-3.96,0-7.44-.29-10.07-.61-3.08-.37-5.66-2.48-6.6-5.38-2.61-8.02-4.69-12.78-6.07-15.48-.72-1.41.35-3.08,1.94-3.01,7.48.3,24.77.81,41.57.03Z"/>
      </g>
      <g id="Fn_right_infill">
        <path class="st2" d="M394.79,365.32c-1.59-.07-2.67,1.59-1.95,3.01,1.38,2.71,3.45,7.46,6.05,15.45.94,2.9,3.52,5.01,6.6,5.38,2.63.32,6.11.61,10.07.61,3.96,0,7.44-.29,10.07-.61,3.08-.37,5.66-2.48,6.6-5.38,2.61-8.02,4.69-12.78,6.07-15.48.72-1.41-.35-3.08-1.94-3.01-7.48.3-24.77.81-41.57.03Z"/>
      </g>
      <g id="Paddle_left_infill" transform="translate(-50, -100) scale(1.25)">
        <path class="st2" d="M246.76,417.14v9.88c0,2.24-1.82,4.06-4.06,4.06h-21.87c-4.39,0-8.63,1.6-11.91,4.51l-9.68,8.56c-3.06,2.71-7.09,4.04-11.16,3.68-5.98-.53-14.21-2.21-17.23-7.37-4.96-8.48-.59-14.18,2.05-16.43,1.48-1.26,5.41-4.54,8.59-7.19,2.92-2.44,6.6-3.77,10.4-3.77h50.81c2.24,0,4.06,1.82,4.06,4.06Z"/>
      </g>
      <g id="Paddle_right_infill" transform="translate(-110, -100) scale(1.25)">
        <path class="st2" d="M393.24,417.14v9.88c0,2.24,1.82,4.06,4.06,4.06h21.87c4.39,0,8.63,1.6,11.91,4.51l9.68,8.56c3.06,2.71,7.09,4.04,11.16,3.68,5.98-.53,14.21-2.21,17.23-7.37,4.96-8.48.59-14.18-2.05-16.43-1.48-1.26-5.41-4.54-8.59-7.19-2.92-2.44-6.6-3.77-10.4-3.77h-50.81c-2.24,0-4.06,1.82-4.06,4.06Z"/>
      </g>
      <g id="L2_stop_slider_handle">
        <rect class="st2" x="25.79" y="154.93" width="5.77" height="13.3" rx="2.89" ry="2.89"/>
      </g>
      <g id="R2_stop_slider_handle">
        <rect class="st2" x="608.44" y="154.93" width="5.77" height="13.3" rx="2.89" ry="2.89"/>
      </g>
    </g>

    <g>
      <g id="Trackpad_infill" >
        <path class="st2" d="M443.82,117.44l-18.73,79.98s0,.02-.01.03l-4.8,20.51c-3.16,13.47-15.17,23-29.01,23.01,0,0-70.8.05-71.27.05s-71.27-.05-71.27-.05c-13.83-.01-25.84-9.54-29-23.01l-4.79-20.44-.02-.1-18.68-79.72c47.34-4.16,145.25-10.09,247.58-.26Z"/>
        <path class="st4" d="M199.2,130.35h.01c44.21-3.55,140.91-9.07,241.63-.19"/>
      </g>
      <g id="Trackpad_outline" >
      </g>
    </g>

    <g id="L3">
      <g id="L3_infill">
      <circle class="st2" cx="224.43" cy="301" r="31.5"/>
      </g>
      <g id="L3_outline">
      </g>
    </g>
    <g id="R3">
      <g id="R3_infill">
        <circle class="st2" cx="415.57" cy="301" r="31.5"/>
      </g>
      <g id="R3_outline">
      </g>
    </g>
    <g id="TriggerPercentages">
      <text id="L2_percentage" x="135" y="75" font-family="Arial, sans-serif" font-size="16" font-weight="bold" fill="#1a237e" text-anchor="middle" opacity="0">0 %</text>
      <text id="R2_percentage" x="505" y="75" font-family="Arial, sans-serif" font-size="16" font-weight="bold" fill="#1a237e" text-anchor="middle" opacity="0">0 %</text>
    </g>
  </g>  
</svg>

